<?xml version="1.0" encoding="utf-8"?>
<!-- Generator: Adobe Illustrator 18.0.0, SVG Export Plug-In . SVG Version: 6.00 Build 0)  -->
<!DOCTYPE svg PUBLIC "-//W3C//DTD SVG 1.1//EN" "http://www.w3.org/Graphics/SVG/1.1/DTD/svg11.dtd">
<svg version="1.1" id="Layer_1" xmlns="http://www.w3.org/2000/svg" xmlns:xlink="http://www.w3.org/1999/xlink" x="0px" y="0px"
	 viewBox="-721.4609 -342 2700.9219 1366.9999" enable-background="new -721.4609 -342 2700.9219 1366.9999" xml:space="preserve">
<g>
	<circle fill="none" cx="1036.0046" cy="-274.1636" r="8.594"/>
	<path fill="none" d="M1058.7504,9.9777c-1.4231-2.1658-3.006-4.2056-4.6417-6.2027
		C1055.7441,5.772,1057.3273,7.8119,1058.7504,9.9777z"/>
	<path fill="none" d="M892.6965,74.5347c-7.528,4.2694-12.7463,13.1383-11.6737,21.8627
		c1.5675,9.0339,8.7657,18.8309,18.9957,17.5521c9.6938-1.1137,21.9863-8.0851,20.7698-19.3671
		C918.973,82.1247,906.1854,67.522,892.6965,74.5347z"/>
	<path fill="none" d="M467.3496-87.9855c5.2087,0,9.4455-4.2368,9.4455-9.4455s-4.2368-9.4455-9.4455-9.4455
		s-9.4455,4.2368-9.4455,9.4455S462.1409-87.9855,467.3496-87.9855z M467.3496-103.97c3.6054,0,6.5391,2.9337,6.5391,6.539
		s-2.9337,6.539-6.5391,6.539c-3.6054,0-6.539-2.9337-6.539-6.539S463.7442-103.97,467.3496-103.97z"/>
	<path d="M467.3496-90.8919c3.6054,0,6.5391-2.9337,6.5391-6.539s-2.9337-6.539-6.5391-6.539c-3.6054,0-6.539,2.9337-6.539,6.539
		S463.7442-90.8919,467.3496-90.8919z"/>
	<path d="M1893.4749-28.6329c-12.5817-29.9066-33.5574-56.1419-59.999-74.9315c-34.8564-23.6365-79.0565-34.6296-120.6165-25.596
		c-8.8276,2.1864-17.3458,5.4247-25.5547,9.2607c-0.6805,0.3301-2.0625,0.9696-2.743,1.2995
		c-25.699,14.9327-42.6324,41.9723-47.603,70.9921c-4.7852,32.5261,8.1469,68.909,37.2904,86.0898
		c6.2495,3.6714,13.035,6.3526,20.027,8.2914c2.5165,0.7013,5.0533,1.3613,7.6522,2.0212
		c15.0769,0.227,30.6078-2.3512,43.4779-10.725c14.7471-9.6114,25.7402-24.6059,30.7317-41.4568
		c1.0106-4.4963,1.6704-9.0339,2.2274-13.592l-0.103-1.7119c0.2062-19.1815-8.4978-38.693-24.7299-49.4181
		c-19.697-13.6539-49.2942-9.632-64.1445,9.3433c-13.5713,16.4589-11.9008,42.7355,3.5065,57.4413
		c9.7351,9.8796,26.4001,12.8908,38.239,4.9914c8.3121-4.8264,12.8085-13.7983,15.0153-22.8322
		c0.1855-5.2595-0.0413-10.5396-0.6805-15.7371c-5.6102-12.272-18.2533-22.9766-32.4641-20.5015
		c0.6599,3.3206,0.1237,7.6107,3.3826,9.7351c7.1982,4.7233,18.707,1.32,23.3683,10.0858
		c9.1165,14.8502-2.2893,35.4135-18.8927,37.9299c-15.6752,3.0731-30.5459-9.467-34.2173-24.1935
		c-4.8468-17.1396,4.1664-36.4861,19.8416-44.6123c12.8701-7.2808,29.4116-6.0845,41.8896,1.4643
		c11.9834,7.1982,20.3368,19.8828,22.4816,33.6811c2.4958,12.8495-0.8867,26.0497-6.5793,37.5791
		c-4.2075,8.0233-10.3126,14.9533-17.5726,20.3366c-16.9746,12.2719-40.0957,14.7676-59.2151,6.1463
		c-1.9388-0.8869-3.7745-1.8357-5.5896-2.8463c-25.1833-12.8288-39.1674-41.9723-37.6204-69.6309
		c1.5881-25.6165,14.2108-51.0888,35.6404-65.7739c21.2235-14.8708,48.4075-19.0372,73.756-15.9434
		c37.7236,4.2076,73.1783,23.5541,98.2999,51.852c29.0815,31.9485,44.2411,75.6534,42.6322,118.6776
		c-1.1754,35.228-14.1694,69.2596-34.011,98.1349c-1.8973,2.6606-3.8156,5.3007-5.7545,7.8995
		c-17.0157,22.2752-38.7959,41.3329-64.4332,53.0274c-36.8983,17.944-79.5308,20.8934-119.7706,15.8815
		c-0.9281-0.1237-2.7638-0.3506-3.6714-0.4743c-44.9219-5.8989-88.1317-20.8934-129.2996-39.3943
		c-3.2177-1.4643-6.3734-3.0318-9.5082-4.5376c-39.642-18.5008-77.2828-41.0854-113.3153-65.8357
		c-10.6221-7.2395-18.9341-17.1807-28.7311-25.4103c-32.2163-27.5966-67.135-52.5737-105.8486-70.2083
		c-3.3619-1.485-6.7032-2.9081-10.0651-4.2901c-7.0743-2.8668-14.3757-5.3832-20.646-9.8382
		c5.3834-1.4644,10.4985-3.7332,15.4896-6.1876c5.4451-2.8256,10.8695-5.7339,16.1704-8.8483
		c8.5179-5.177,16.7887-10.8076,24.8739-16.6858c2.1038-1.5675,4.2074-3.1969,6.3112-4.8057
		c9.9828-7.425,19.3468-15.6133,28.2155-24.3378c12.045-11.3645,22.5228-24.1935,32.8975-37.0636
		c-15.1392-2.2069-30.5049-1.4643-45.6646-3.2382c-6.7445-0.5568-13.4478-1.2375-20.1304-2.083
		c-5.7129-0.7838-11.3645-1.7326-16.9951-2.7638c-0.8455-0.165-2.5162-0.4743-3.3617-0.6394
		c-33.2068-6.4144-66.3722-16.6859-94.5256-35.9498c-27.1427-18.0058-48.5313-45.2932-57.2764-76.8703
		c-3.2174-10.7253-4.5787-21.8627-6.3525-32.8768c-3.4445-20.5014-14.5406-41.0027-33.3923-51.0062
		c-32.5054-17.0158-78.6439-1.8767-93.1641,32.2581c-1.4437,2.5575-2.475,5.7956-5.5275,6.8268
		c-7.6728,3.4858-15.7786,5.8781-23.3479,9.5701c9.302,5.177,20.8108,6.9917,28.3804,14.8707
		c0.3298,0.928,0.9693,2.764,1.2994,3.692c2.0006,4.9911,4.7024,9.6731,7.4457,14.2932
		c-15.2627,9.4465-27.2665,23.4715-34.8978,39.6417c-17.181,36.3419-18.1503,79.9023-2.8465,117.069
		c5.2182,11.5707,11.8182,22.6258,19.8828,32.4641c3.8156,4.5169,7.6934,9.0132,12.0864,13.0145
		c14.7264,11.4263,29.9066,22.9766,47.562,29.5354c2.1886,0.7509,4.3995,1.5244,6.6327,2.32
		c0.1752,1.648,0.2024,1.9042,0.3776,3.5522c-10.5875,6.308-21.8903,11.2852-32.173,18.0944
		c-24.4205,14.1902-46.3452,32.0516-68.6409,49.2737c-6.7032-4.5169-14.2108-7.6314-21.9043-10.0033
		c7.0746-10.1269,13.7778-21.4295,12.8908-34.2997c-2.0625-7.3014-7.2599-14.7677-15.3244-15.7577
		c-12.4164-2.0419-24.2553,4.9913-31.6391,14.5201c-1.7531,3.2175-3.4858,6.4144-5.1769,9.632
		c-8.0645-6.9713-16.9542-15.6545-28.5453-14.3139c-7.3014-0.3093-12.3545,5.3213-17.3459,9.7145
		c-0.6805,6.6414-2.1245,13.5302-0.2475,20.1096c2.2894,6.827,7.9613,11.6533,12.8702,16.6033
		c-10.0445,4.3314-21.3884,10.2095-24.2141,21.7803c-3.7746,12.0246,4.9911,25.2866,17.1191,27.576
		c10.6011,1.9801,20.1713-4.4344,27.947-10.8283c-1.0106,10.2095-0.103,20.5634,3.238,30.2985
		c-13.86,15.3865-29.0402,29.4941-42.818,44.963C791.2203,254.0774,738.7292,313.0038,681.8652,367.64
		c-7.033,6.8682-14.1076,13.6745-21.2854,20.3777c-14.7056,14.0045-29.4526,28.0916-45.6228,40.4048
		c11.7357-16.7477,22.9147-34.011,30.8966-52.945c7.879-20.0065,12.9734-41.1886,13.9221-62.7008
		c1.8767-29.2259-3.8365-58.5138-13.8188-85.9041c-2.5988-7.0951-5.569-14.0251-8.5391-20.9553
		c-6.4761-12.3957-12.7256-24.9771-20.8518-36.4035c-5.4867-8.147-12.3339-15.3039-17.4698-23.6572
		c-5.4864-8.9513-9.6938-18.5627-13.7571-28.174c-8.6212-19.4289-14.912-39.848-19.202-60.6588
		c-4.9708-28.1948-5.6719-58.7201,7.2601-85.0173c11.7769-24.7503,35.5372-42.1374,61.2982-50.1813
		c36.9399-11.2201,79.139,7.7139,98.0936,40.7555c10.189,17.3459,14.3553,39.4355,7.2188,58.6788
		c-1.3405,3.2175-2.8667,6.3526-4.5994,9.3638c-5.4645,9.2192-14.9204,14.4879-24.9135,17.4556
		c-4.442,1.3191-9.1335,1.5843-13.7075,0.8428c-8.5742-1.39-17.0414-4.1238-23.1309-10.6051
		c-10.9934-10.6014-13.097-29.3498-3.197-41.3949c7.879-10.3539,24.0698-14.7265,35.3313-7.2808
		c6.0869,3.9092,8.5114,10.9598,10.8367,17.5132c0.4534,1.2778,1.6334,2.1536,2.9871,2.229
		c0.0203,0.0011,0.0405,0.0023,0.0608,0.0034c1.7712,0.0985,3.3305-1.1889,3.5396-2.9505c0.0806-0.6793,0.0901-1.4311,0.0489-2.2084
		c-0.2642-4.9735-2.4902-9.7188-6.1361-13.1119c-8.8853-8.2691-23.1087-9.948-34.5816-6.7341
		c-17.5108,5.3213-28.9579,24.7296-24.2966,42.6323c2.3715,5.5716,5.7325,10.5715,9.6749,15.1093
		c8.0254,9.2375,19.9161,14.214,32.1291,13.4514c4.3621-0.2724,8.7057-0.7215,12.9972-1.6035
		c11.7359-3.0938,22.4816-10.2507,28.8754-20.6871c8.7657-12.9939,9.3846-29.4529,7.8787-44.53
		c-3.2585-20.914-13.6949-40.8173-29.9066-54.5538c-19.0577-16.3145-44.3443-25.2659-69.4451-24.2347
		c-20.9757,0.5363-41.0646,8.807-58.3076,20.4397c-9.3433,6.992-17.779,15.2421-24.7297,24.6472
		c-16.4176,24.709-20.4395,55.2343-18.4388,84.2747c3.0319,28.2566,11.7975,55.3787,21.9244,81.779
		c-17.7374-12.8908-36.8157-24.1727-57.7094-31.1234c-9.8176-3.3413-19.8002-6.2082-30.0302-7.9202
		c-9.6114-1.5881-19.3465-2.1243-29.0403-2.805c18.1707-8.7657,35.8051-19.6353,48.6136-35.5373
		c19.9034-23.4097,30.4223-54.7188,27.4108-85.4297c-0.99-17.0778-7.6725-33.0623-15.0356-48.2838
		c3.6507-3.3619,10.395-12.4782,10.2714-13.2207c-5.177,0.66-10.395,1.1962-15.5926,1.485
		c5.1976-5.7337,11.1787-10.7045,17.0984-15.6958c-7.6522-0.0413-15.366,0-22.853,1.7737c-4.1457,0.66-8.7244,2.4544-12.5609-0.165
		c-9.013-5.0326-18.4802-9.7765-28.9164-10.7252c-3.7706-0.4391-7.2591-0.2256-9.9982,0.1551
		c-0.1324,0.0184-0.2477,0.0398-0.3759,0.0589l0.0984-18.606c1.8483-0.959,3.006-3.0649,2.4456-5.3957
		c-0.3946-1.6413-1.7144-3.0005-3.3481-3.4256c-3.1854-0.8289-6.0492,1.5528-6.0492,4.6031c0,1.9402,1.1632,3.6024,2.8259,4.3476
		l-0.1022,19.3034c-0.8512,0.2211-1.3366,0.3824-1.3366,0.3824c-0.4565,0.1667-0.9109,0.3417-1.3669,0.5108l-4.7223-25.0386
		c1.4554-1.1262,2.263-3.0508,1.67-5.1395c-0.4412-1.5542-1.7254-2.8135-3.2885-3.222c-3.1875-0.8329-6.0545,1.5498-6.0545,4.6018
		c0,2.2418,1.5519,4.1084,3.6364,4.6193l4.8426,25.6771c-0.8299,0.3268-1.6592,0.6536-2.4835,0.9935
		c0.0775-0.4401,0.0453-0.9036-0.1826-1.3279l-8.1121-15.0973c0.7738-1.0924,1.1124-2.5136,0.7117-4.0257
		c-0.4267-1.6103-1.7457-2.9283-3.3611-3.3352c-3.1691-0.7983-6.0086,1.5762-6.0086,4.6135c0,2.634,2.1355,4.7696,4.7696,4.7696
		c0.0952,0,0.1838-0.0224,0.2777-0.028l8.0892,15.0548c0.1629,0.3031,0.3986,0.5373,0.6649,0.7181
		c-6.112,2.7008-11.9919,5.8812-17.2973,9.9901c-20.8317,15.6753-37.5175,35.9498-54.2445,55.7295
		c-10.8076,13.6539-22.2547,26.8128-34.0729,39.5798c-13.7362,14.3964-28.0503,29.0197-46.3242,37.5586
		c-7.3427,3.3824-15.2008,5.4244-23.0385,7.2188c6.6826,6.8681,13.3447,13.8188,20.8521,19.8002
		c4.62,3.5888,9.4878,6.8682,14.3757,10.0858c13.1798,8.8275,27.8854,14.9327,42.5914,20.7077
		c19.14,5.4244,38.8166,9.0545,58.782,8.807c-10.4571,4.8469-21.1822,9.2814-30.7732,15.7164
		c-5.4036,3.6094-10.725,7.3839-15.7988,11.447c-2.2277,1.8563-4.3519,3.8157-6.4557,5.8163
		c-2.6811,2.4957-5.3419,5.0119-7.9819,7.5694c-1.6089,1.5469-3.1764,3.1351-4.7026,4.7644
		c-11.7356,14.7058-22.5845,30.7728-27.7202,49.0881c-1.712,5.9607-3.3826,11.9215-4.7439,17.9853
		c-1.0313,9.797-1.32,19.7795,0.2475,29.556c3.6301,17.4902,11.9214,33.846,23.3477,47.5412
		c20.5636,24.3171,54.9047,36.4654,85.9664,27.9678c3.6094-1.0313,7.1776-2.1656,10.7044-3.4444
		c5.177-2.4132,10.0649-5.3833,14.6645-8.7864c8.7244-6.9713,15.9433-15.9434,20.3365-26.256
		c6.7858-14.0458,6.3321-30.1128,3.8156-45.1281c-5.3625-16.0877-14.7264-31.4947-29.4113-40.5905
		c-14.2111-9.3225-32.2788-11.4263-48.5726-6.9301c-15.2423,5.6101-28.2361,18.6865-30.9172,35.1042
		c-3.0525,13.3445,1.423,27.2047,8.8687,38.3011c10.2509,13.3445,28.1948,19.7177,44.4886,14.9945
		c7.0746-3.465,14.0253-8.1675,17.614-15.4483c10.4571-20.0683-1.1755-47.4999-21.9657-55.4613
		c-0.495,3.6301-1.8153,7.7139,0.4743,11.0759c5.3829,8.9513,17.6964,11.7151,21.3471,22.0277
		c3.5268,10.4982-2.0625,21.739-9.9413,28.6897c-6.3114,4.187-13.7574,7.4457-21.4712,6.497
		c-10.4979-1.0313-19.5733-7.4252-26.2353-15.2834c-18.1501-21.8214-3.733-58.4519,22.9149-65.2995
		c24.1934-6.332,49.1912,9.4669,59.7513,30.9379c12.3751,23.2859,6.1463,54.3475-14.3344,70.9921
		c-29.391,26.4829-79.1393,20.1303-103.3533-10.2302c-2.3924-3.0112-4.5788-6.1669-6.6619-9.3845
		c-20.0064-28.0916-17.6347-67.0114-0.6189-95.8867c6.7651-8.6213,13.2927-17.5025,20.8111-25.4928
		c6.6745-7.0934,19.5733-17.8614,29.5146-25.431c26.8954-16.129,58.9058-23.3683,90.1531-21.4915
		c14.8196,0.866,29.1321,4.9619,43.5108,8.3815c1.3865,0.3298,2.7313,0.7998,4.0161,1.4168
		c5.4026,2.5946,20.7319,10.0461,28.9308,14.952c2.0419,1.2375,4.1044,2.5162,6.1465,3.8156
		c6.0844,3.8569,11.8799,8.1676,17.3869,12.829c19.1816,15.9226,34.9184,35.7641,46.4481,57.8331
		c12.21,23.3478,21.1409,48.5724,24.7709,74.7459c1.6912,10.127,1.918,20.3984,1.7325,30.6285v1.7118
		c-0.062,4.4963-0.2888,9.0339-0.7631,13.5302c-1.5469,11.9008-3.8983,23.7397-7.5076,35.2073
		c-4.4551,13.7159-10.189,27.0192-17.4078,39.4974c-10.8696,18.3152-23.884,35.3517-38.5278,50.8
		c-1.0726,1.0724-2.1245,2.145-3.1764,3.2175c-8.6625,8.7038-17.6346,17.1189-26.9777,25.0802
		c-28.4833,23.7603-59.7515,44.1381-92.5868,61.3394c-16.6241,9.3433-34.0523,17.0365-51.1714,25.3897
		c-10.8489,3.6094-21.0583,8.869-31.804,12.7465c-3.1351,1.155-6.2495,2.31-9.364,3.4443
		c-14.3551,5.1357-28.6278,11.0345-43.7874,13.3033c-14.3344,2.4131-57.792,13.0352-66.2896,13.7776
		c-47.603,8.2088-95.7425,14.0251-144.0673,14.9533c-63.5877,1.7531-127.2578,0.0206-190.7217-4.1663
		c-8.7864-0.2682-17.5727-0.6188-26.2765-1.8357c-20.419-0.4537-40.7349-2.5369-61.0713-4.0425
		c-12.1277-1.0106-24.3172-1.4644-36.3212-3.465c36.7542-4.1251,72.5596-15.1596,105.7457-31.3298
		c0.99-0.4951,2.9907-1.485,4.0013-1.98c8.1883-4.1663,16.0259-8.9926,23.7603-13.9427c7.6314-4.455,14.8296-9.5907,21.8009-15.0151
		c8.3326-6.5383,16.3145-13.5714,23.7397-21.1204c11.9833-12.3132,22.6258-25.9671,31.2059-40.8586
		c11.6533-20.3983,19.3465-43.4986,19.2434-67.1763c0.7838-32.2579-12.6639-62.9896-31.2472-88.7298
		c-13.6127-16.8921-29.3498-32.1135-47.1081-44.6331c-38.1154-28.1329-83.5942-44.1586-129.5678-53.9969
		c-3.7332-0.3712-7.4663-0.8251-11.1995-1.1963c-48.428-5.6513-98.5062-1.4232-144.1292,16.3971
		c-14.7882,5.8781-29.3085,12.5813-42.7149,21.2028c-14.747,9.4463-28.4422,20.6252-40.1573,33.7016
		c-2.2894,2.475-4.5582,4.9913-6.7032,7.6107c-2.2482,2.9082-4.4345,5.8576-6.497,8.8895
		c-12.8495,19.1609-20.584,41.9518-19.4083,65.1964c2.5782,24.606,14.2726,47.5825,31.0616,65.5471
		c12.5814,13.6745,27.4109,25.1835,43.5605,34.3616c3.9394,2.2895,7.92,4.4551,11.9832,6.5176
		c3.527,1.7325,7.1158,3.3619,10.7252,4.95c48.2425,21.7184,104.2606,26.6479,154.7924,9.9002
		c13.8601-4.7439,27.3078-10.8283,39.7861-18.5422c13.7365-8.9306,26.091-20.0064,36.1148-32.9798l1.1757-0.433
		c6.3526-10.5807,12.2927-21.6153,15.2008-33.7017c1.7119-14.3757-2.2481-28.5041-3.7743-42.7149
		c-4.2076-11.3232-13.5508-19.6352-23.6779-25.6578c-10.7663-5.8781-21.4297-11.9833-32.5054-17.2633
		c-7.3632-3.2587-14.5614-6.8888-21.3264-11.2613c-1.7532-1.1139-3.465-2.2689-5.1563-3.4445
		c-6.4351-4.4963-12.334-9.6938-17.6552-15.4276c-2.4544-2.6194-4.8057-5.3419-7.0333-8.1675
		c-4.0425-5.2596-7.3013-11.0346-10.6014-16.7478c-2.3718,3.7744-4.7644,7.5283-7.0332,11.3645
		c-3.4032,10.6221-8.0026,21.0997-8.6007,32.4023c-0.9901,10.0445,0.7838,20.0477,2.805,29.8653
		c5.0532,8.6833,10.7663,17.0984,17.9852,24.1729c1.9594,1.8355,4.0426,3.5888,6.1671,5.2594
		c20.6664,15.0977,45.2723,23.2241,69.7958,29.556c5.7957,1.588,11.9421,2.1037,17.6759-0.1237
		c-24.709-13.1796-51.6662-23.4304-72.4978-42.7769c-7.8376-7.1156-12.0657-17.1601-14.2313-27.3285
		c6.8476,9.6114,14.1695,18.9753,23.4096,26.4622c21.8009,17.8203,48.0156,29.0817,73.2196,41.2092
		c-0.3299,12.7877-4.1662,25.2454-11.6327,35.6818l-0.8043,1.3405c-2.5782,3.7332-5.4451,7.2808-8.5182,10.6014
		c-4.3107,4.6407-9.0132,8.8895-13.9633,12.829c-7.6314,6.3525-16.067,11.6945-24.9771,16.0877
		c-10.2713,5.28-21.2028,9.1576-32.2579,12.3751c-44.7155,11.8389-93.1436,5.5276-134.5591-14.5408
		c-2.9287-1.382-5.8576-2.7845-8.7244-4.2694c-1.815-0.9488-3.5889-1.9388-5.3626-2.9494
		c-13.7157-8.2708-27.0397-17.5315-38.0741-29.2467c-8.7039-9.4669-16.4178-20.0064-21.6565-31.8041
		c-1.9594-4.8675-3.527-9.8795-4.7644-14.9533c-1.0519-5.0532-1.6707-10.1682-1.9388-15.3039
		c-0.8457-25.3485,11.7976-49.1294,28.669-67.2589c8.3945-9.4464,17.8203-17.9646,28.401-24.9153
		c16.3971-11.8802,34.8361-20.6252,53.9969-27.1016c30.8141-10.7045,63.7321-14.9533,96.2993-13.324
		c21.409,0.8663,42.653,4.4758,63.3402,10.024c8.4357,2.3307,16.7889,4.95,24.9565,8.0438
		c19.1403,7.5076,37.7648,16.4384,54.8838,27.8647c6.332,4.1044,12.3751,8.6213,18.1915,13.4477
		c5.0532,4.1869,9.962,8.5389,14.6645,13.1176c17.2222,17.1396,31.5979,37.6823,38.8993,61.0302
		c8.4357,25.8021,6.6413,54.6363-4.62,79.304c-8.2707,19.2021-20.8934,36.3418-35.5786,51.1301
		c-7.2601,7.4663-15.1803,14.2727-23.4097,20.6459c-2.5575,1.9182-5.115,3.8156-7.7138,5.6513
		c-34.8567,24.4202-75.1791,40.1985-116.5739,49.418c-16.562,4.0013-33.4541,6.5383-50.4081,8.0439
		c-17.1602,1.4025-34.3616,2.1863-51.5838,1.7325c-26.8953-1.5264-53.5431-6.0226-80.3765-8.5389
		c-11.4263-1.2787-22.7909-2.9288-34.1761-4.4138c-38.4042-4.3519-76.7053-9.632-115.0475-14.4583
		c-7.9408-0.99-15.8608-2.0212-23.7809-3.1144c-7.1982-1.0313-14.3964-2.0006-21.5946-2.9494
		c-3.9601-0.433-7.9202-1.0313-11.8801-1.5675c-3.3619-0.3919-6.7032-0.8663-10.0651-1.2993
		c-10.0239-1.2789-20.0685-2.4339-30.0717-3.9188c-5.7338-0.8044-11.4883-1.5469-17.222-2.2482v91.2874
		c15.1182,0.3094,30.2159,1.155,45.3342,1.2787c23.2653-0.0206,46.4686,1.4645,69.7133,1.8151
		c62.1232,1.1138,124.226,3.0938,186.3286,4.2901c11.447,0.1443,22.9146,0.0825,34.3409,0.4537
		c15.4278,0.0826,30.8348,0.2063,46.2624,0.5982c7.3221,0.0618,14.6646,0,21.9866,0.1238c46.118,0.3299,92.236,0,138.3748-0.5363
		c4.9087-0.0825,9.8382-0.2062,14.7676-0.33c10.0651-0.2476,20.1303-0.2476,30.1954-0.5776
		c12.6433-0.5775,25.3071-0.6807,37.971-1.0519c24.6472-1.1963,49.3768-1.2994,74.0034-3.3413
		c17.1189-1.7119,34.7948-0.5363,51.2743-6.2288c56.142-5.5276,112.2015-12.437,167.9103-21.3884
		c3.1968-0.4124,6.4142-0.7838,9.6318-1.1344c13.5716-1.2168,27.1223-2.7019,40.5903-4.7644
		c14.0872-2.3513,28.1331-5.0944,42.0758-8.2914c-4.0014,4.785-8.1678,9.4257-11.9214,14.3965
		c-8.0233,13.0352-15.5309,26.8128-18.2329,42.0548c-2.4336,11.5709-1.6088,23.4715-0.1855,35.1248l0.5982,1.6707
		c1.2788,3.7332,2.4543,7.5076,3.7744,11.2613c1.1758,3.1144,2.5162,6.1671,4.0012,9.1577
		c7.1572,14.2728,17.4904,27.0809,30.7526,36.053c2.3717,1.4025,4.8053,2.7226,7.2599,4.022
		c10.4158,5.6306,21.9453,8.91,33.6809,10.292c3.0938,0.2062,6.2082,0.433,9.3433,0.5774
		c27.1842-0.1855,53.3165-15.407,66.4958-39.2086c6.8684-12.7464,7.8996-28.731,0.9283-41.6629
		c-4.0427-6.8889-8.819-13.8476-15.6751-17.8203c-4.2894-2.4854-9.2548-3.6784-14.0666-4.7851
		c-12.1817-2.8018-27.0525,0.6508-33.7635,11.2821c-3.6919,5.8485-5.6037,12.9879-5.7543,19.9239
		c-0.2787,12.8379,9.9,24.1316,21.9863,29.1435c7.5283,1.7737,16.789,3.1763,22.8736-2.8669
		c3.1144-2.145,4.1698-7.6205,1.5675-9.302c-5.8885-3.8049-11.9421,8.3121-19.2022,8.8277
		c-10.5191-0.3301-19.3004-8.8936-21.6359-18.8928c-1.676-7.1754,0.1032-14.582,3.9599-20.7283
		c5.2802-5.8782,12.1784-10.1938,20.2335-11.1376c0.9328-0.1093,2.774-0.5533,3.692-0.5982
		c6.8723-0.3362,13.5713,2.4957,19.3052,6.3526c2.4546,2.1037,4.723,4.4138,6.9507,6.827
		c9.8589,11.0757,10.5395,28.0503,3.7743,40.8793c-8.91,18.1295-27.1223,30.0715-46.4478,34.5472
		c-6.8064,1.155-13.6954,1.7325-20.5842,1.7944c-12.4368-0.6188-24.5441-4.5789-35.3723-10.6221
		c-29.9272-18.4597-45.1074-57.7507-35.991-91.6173c2.7844-9.962,7.4044-19.3259,13.2412-27.8647
		c6.5796-10.4363,14.6441-19.9033,23.7191-28.2771c9.0341-8.4564,21.9662-9.5908,33.2275-13.3858l1.7325-0.7632
		c1.4646-0.6599,2.9495-1.3199,4.4758-1.9181c0.9693-0.3506,2.9286-1.0313,3.8979-1.3819
		c39.3531-13.8189,77.0768-31.9897,113.2123-52.7594c70.1052-40.8998,133.4039-92.2773,193.0109-147.0786
		c63.8557-58.555,123.5659-121.3589,186.6379-180.7184c33.9286-31.4328,68.6613-62.2263,106.8799-88.3998
		c2.2897-1.5469,4.5994-3.0525,6.9303-4.5582c1.2372-0.7836,3.7124-2.3512,4.9498-3.135
		c38.1567-25.6372,81.4491-44.0143,127.093-50.5938c0.7629-0.0206,2.2686-0.0618,3.0112-0.0618
		c35.1659-2.7225,70.9507,2.0832,103.6418,15.4689c29.5559,11.4263,57.1112,27.679,82.1915,46.9842
		c8.6215,6.5176,16.9333,13.4477,24.9565,20.7283c1.5469,1.382,3.1558,2.7845,4.7439,4.1663
		c11.8389,10.2302,22.5846,21.6565,33.021,33.2892c18.2738,20.9758,34.7739,43.5605,48.3248,67.8776
		c17.676,31.0616,31.598,64.4539,39.7863,99.3106c0.7012,2.4956,1.3611,4.9913,1.9592,7.5281
		c5.9608,23.8841,8.5802,48.4282,9.9003,72.9515c0.0619,1.2994,0.1649,3.8982,0.2268,5.1976
		c-0.0619,22.6465-1.6294,45.3549-5.6306,67.6921c-2.2688,12.8908-5.4657,25.5959-8.9926,38.198
		c-9.5289,32.5879-24.0284,63.7733-43.0245,91.9268c-14.0663,20.9758-30.1125,40.8586-49.0879,57.5856
		c-8.9926,9.0957-18.8722,17.284-29.0815,24.9565c-4.7233,3.6507-9.6735,7.0126-14.6029,10.3539
		c-11.8801,7.8376-24.3379,14.7883-37.1667,20.9346c-7.3837,3.5476-14.912,6.8064-22.5845,9.6321
		c-10.2507,3.8569-20.8108,6.7444-31.4948,9.0132c-42.6323,10.3333-89.2455,6.0432-128.124-14.8708
		c-10.1064-5.2387-19.5321-11.6945-28.4628-18.7484c-13.6748-10.5395-25.8641-23.0178-36.1147-36.8985
		c-29.2261-38.6105-42.4263-89.7198-32.2375-137.4054c7.3633-38.9405,31.4331-74.2921,64.8254-95.5981
		c27.3489-16.8919,60.8032-23.6158,92.5247-17.9232c6.1875,1.1137,12.2721,2.7637,18.2948,4.6819
		c36.8158,11.7977,68.4344,40.4667,81.7789,76.9734c8.6831,22.8322,10.1683,48.49,3.3826,72.0028
		c-2.743,11.0757-7.9613,21.3677-13.9427,30.9997c-11.6946,15.6958-27.1635,29.1641-45.9735,35.3517
		c-33.2894,11.7564-75.1172,5.012-98.4855-22.8115c-0.4537-0.5569-1.4027-1.6706-1.877-2.2275
		c-16.5829-18.0471-15.9436-44.3443-13.2209-67.0939c-0.0619-3.0526-0.1031-6.0638-0.2268-9.0751
		c-0.4744-6.0638-1.7118-12.0245-3.5271-17.7996c-0.5566-1.2994-1.6499-3.9188-2.2068-5.2388
		c-3.9395,0.1444-9.3843-0.66-11.2614,3.795c-4.9294,10.0858-3.1967,21.7596-4.0013,32.6085
		c3.2383,30.9791,18.6453,60.4732,42.3436,80.686c8.0646,6.1051,17.0365,10.9726,26.4418,14.7058
		c7.1362,1.8356,14.3344,3.3826,21.6152,4.5995c38.7343,4.0013,79.077-14.4583,100.1356-47.4587
		c7.2599-11.1377,12.3132-23.5335,16.0669-36.218c4.8469-26.751,3.1144-55.1107-8.2295-80.0672
		c-21.0995-48.8612-70.1877-82.7278-122.6172-88.8949c-24.9976-1.8769-50.3254,1.7119-73.5288,11.2614
		c-5.899,2.4751-11.5917,5.4451-17.0365,8.7451c-6.8477,4.3932-13.4684,9.1163-19.6559,14.3759
		c-11.777,10.3538-22.0483,22.3371-30.8966,35.2485c-2.7845,4.0839-5.4038,8.312-7.7964,12.6433
		c-4.7645,9.3845-9.4053,18.8928-12.9114,28.834c-5.177,16.9334-8.7658,34.3618-9.859,52.0582
		c-0.1855,6.8682,0.1033,13.757,0.495,20.6458c0.1033,2.0831,0.2477,4.1663,0.4127,6.2908
		c1.877,16.2321,6.2289,32.0516,11.4675,47.4999c5.899,11.674,11.3232,23.6366,18.5627,34.5886
		c24.3793,34.1966,57.9984,62.2881,97.1864,77.8809c35.7642,14.4583,75.3851,17.7378,113.4388,12.8083
		c7.8169-1.1137,15.5719-2.7019,23.3477-4.125c13.0558-3.1556,25.7816-7.487,38.5901-11.4677
		c40.4871-15.9433,77.5299-39.6623,110.056-68.4552c-12.7256,31.1854-22.4194,63.6701-27.514,97.0006
		c-0.8457,5.61-1.485,11.2613-2.0419,16.9332c-0.7838,9.137-1.1755,18.2946-1.4026,27.4728
		c0.2064,29.4941,4.8058,59.6277,18.6246,86.0073c3.7126,6.8269,8.0646,13.3033,12.8289,19.4496
		c6.3527,8.0026,13.8397,15.077,22.1102,21.079c13.2827,9.9208,28.6693,16.5002,44.3857,21.5121
		c7.2599,1.6913,14.5819,3.1969,21.9863,4.3519c25.0391,3.0525,50.9238-0.5569,73.7972-11.3232
		c4.2283-2.0214,8.3943-4.2281,12.437-6.662c3.9396-2.5369,7.7345-5.3005,11.4263-8.2088c1.5469-1.32,3.1144-2.64,4.6613-3.96
		c2.1451-1.9388,4.2697-3.9188,6.3322-5.9607c26.7302-28.0503,33.7015-71.6315,20.0684-107.4575
		c-5.1151-10.2302-11.7976-20.0684-21.3884-26.5653c-12.5813-9.0958-28.6691-11.7977-43.8699-10.8076
		c-18.5834,3.5062-36.0736,15.3864-43.4987,33.1653c-3.5269,7.7758-3.197,16.4796-2.4751,24.7916
		c0.6602,2.6813,1.4645,5.3625,2.2277,8.0644c5.4451,8.5596,12.437,16.624,21.8214,20.976
		c9.8176,5.0532,21.2028,4.9706,31.9072,3.4443c8.6627-3.1557,16.5208-8.2708,23.2653-14.5614
		c2.702-6.6207,6.8478-15.077,2.1451-21.739c-2.4956-2.3513-5.3832-1.4644-7.4869,0.7425
		c-0.7012,9.1576-2.3719,19.2845-9.9003,25.4927c-12.9114,11.7564-34.3615,8.3945-45.6437-4.0219
		c-7.59-7.7551-11.7562-18.8514-10.2714-29.6796c1.8357-16.9954,15.0979-31.3917,31.1234-36.4449
		c15.7578-4.9294,34.0524-2.1243,47.0464,8.2708c10.1064,7.7551,16.5001,19.3465,20.027,31.4122
		c4.9502,18.9546,3.8776,39.4354-3.5269,57.6064c-0.4536,1.0724-1.382,3.2176-1.8563,4.29
		c-9.8383,21.904-28.6278,39.2499-50.3873,49.0262c-2.8462,1.2375-5.6719,2.4544-8.5182,3.6094
		c-7.8584,2.5988-15.9639,4.3312-24.1523,5.4038c-31.1028,3.3412-63.0719-6.4557-88.5027-24.2759
		c-30.67-21.9658-46.2007-59.937-48.2632-96.7117c-1.7944-18.9341-0.9902-38.0124,1.6499-56.8226
		c4.6406-36.9191,15.1184-72.9102,28.834-107.4368c5.899-13.6127,10.2303-28.3184,19.9447-39.8273
		c13.056-16.2734,23.9872-34.1348,33.7842-52.512c9.6321-18.7689,18.109-38.1772,24.3173-58.3488
		c4.5168-14.6852,8.4769-29.5767,11.2407-44.6949c1.0313-6.2495,2.145-12.4577,3.0731-18.7071
		c0.4126-3.527,0.7424-7.0333,1.1138-10.5395c2.0419-21.2646,3.3619-42.6943,1.6295-64.0208
		c-0.0619-1.5675-0.1445-4.7231-0.1858-6.3113c-0.5156-5.0737-0.8042-10.1682-1.2994-15.2421
		c-3.7537-30.4427-9.5288-60.7412-19.7175-89.7403c-7.0746-21.6565-15.9227-42.6943-26.0291-63.072
		c-2.2482-4.4963-4.5581-8.9721-6.9921-13.3446c-4.0631-6.8475-8.3533-13.592-11.7356-20.8108
		c8.5179,3.5268,16.5825,8.0233,24.7913,12.2101c51.6664,25.9053,106.9421,45.8499,164.4657,53.2338
		c4.249,0.4538,8.5183,0.7013,12.8291,0.8869c17.1602,1.5469,34.506,1.382,51.6249-0.8456
		c29.4735-3.5063,58.3695-13.1589,83.1611-29.6798c7.4869-5.0944,14.7677-10.5395,21.7184-16.3764
		c20.1713-18.5421,36.6921-40.8999,49.0056-65.3614c10.7664-20.8521,18.4801-43.4368,21.7181-66.7226
		c0.495-3.5476,1.052-7.0951,1.5264-10.6427C1911.1711,37.6154,1907.0461,2.7175,1893.4749-28.6329z M1036.0046-265.5695
		c-4.746,0-8.5935-3.8476-8.5935-8.594s3.8475-8.594,8.5935-8.594c4.7465,0,8.594,3.8476,8.594,8.594
		S1040.7511-265.5695,1036.0046-265.5695z M1054.1086,3.775c1.6357,1.9971,3.2186,4.0369,4.6417,6.2027
		C1057.3273,7.8119,1055.7441,5.772,1054.1086,3.775z M467.3496-106.8765c5.2087,0,9.4455,4.2368,9.4455,9.4455
		s-4.2368,9.4455-9.4455,9.4455s-9.4455-4.2368-9.4455-9.4455S462.1409-106.8765,467.3496-106.8765z M900.0185,113.9495
		c-10.23,1.2788-17.4282-8.5182-18.9957-17.5521c-1.0726-8.7244,4.1457-17.5933,11.6737-21.8627
		c13.489-7.0126,26.2765,7.5901,28.0918,20.0477C922.0048,105.8644,909.7123,112.8358,900.0185,113.9495z"/>
	<path d="M760.7766,193.4438c-7.5876-5.8088-20.5628-1.6037-28.9805,9.3922c-1.0084,1.3173-1.899,2.6739-2.6841,4.0487
		c-0.9051-1.2992-1.9135-2.5705-3.0357-3.7925c-9.3671-10.1993-22.666-13.2275-29.7041-6.7637
		c-7.0381,6.4638-5.15,19.9718,4.2171,30.1711c0.0873,0.0951,0.1804,0.179,0.2686,0.2727c-0.1193,0.0482-0.2393,0.085-0.3583,0.1344
		c-12.788,5.3139-20.1821,16.7752-16.5153,25.5996c3.6668,8.8244,17.0061,11.6702,29.7938,6.3566
		c0.1194-0.0497,0.2299-0.1085,0.3482-0.1591c0.0044,0.1286-0.0019,0.2536,0.0038,0.3826
		c0.6197,13.8341,8.8607,24.7024,18.4071,24.2747c9.5464-0.4276,16.7828-11.9889,16.1633-25.8231
		c-0.0058-0.1289-0.0232-0.253-0.0303-0.3814c0.1223,0.0399,0.2377,0.0886,0.361,0.1272
		c13.2118,4.1493,26.2432,0.1222,29.1063-8.9945c2.8632-9.1168-5.5259-19.8713-18.7377-24.0205
		c-0.1231-0.0388-0.2455-0.0648-0.3689-0.1019c0.0794-0.1015,0.1646-0.193,0.243-0.2955
		C767.6914,212.8754,768.3643,199.2526,760.7766,193.4438z M737.0321,244.5397c-5.5445,5.0921-14.1667,4.7252-19.2587-0.8191
		c-5.092-5.5444-4.7254-14.1666,0.8192-19.2587c5.5442-5.0918,14.1666-4.7251,19.2586,0.8193
		C742.9431,230.8255,742.5764,239.4478,737.0321,244.5397z"/>
	<path d="M522.1115,403.2363c-2.472-14.0199-20.9465-22.4811-41.2635-18.8987c-2.4339,0.4293-4.7781,1.0203-7.0251,1.7376
		c0.3162-2.3376,0.4909-4.7487,0.4909-7.2205c0-20.6305-11.5406-37.3547-25.7768-37.3547
		c-14.2362,0-25.7767,16.7243-25.7767,37.3547c0,0.1923,0.0176,0.3782,0.0198,0.5699c-0.1795-0.0674-0.3481-0.1478-0.5286-0.2136
		c-19.3865-7.056-39.0494-1.9313-43.9184,11.4463c-4.869,13.3777,6.8997,29.9424,26.2855,36.9984
		c0.1811,0.0657,0.3616,0.1126,0.5424,0.1763c-0.1248,0.1456-0.2576,0.2763-0.3814,0.4237
		c-13.2608,15.8038-15.1706,36.0336-4.2649,45.1845s30.4963,3.7575,43.7575-12.0463c0.1235-0.1474,0.2294-0.301,0.351-0.4491
		c0.0941,0.167,0.1715,0.3368,0.2678,0.5033c10.3153,17.8665,28.6721,26.5798,41.0007,19.4617
		c12.3287-7.1181,13.9613-27.3722,3.646-45.2387c-0.096-0.1666-0.2042-0.3186-0.3021-0.4835
		c0.1895-0.0314,0.375-0.0459,0.5645-0.0793C510.1172,431.5258,524.5834,417.2563,522.1115,403.2363z M444.5678,435.3734
		c-11.2151,0-20.3062-9.0913-20.3062-20.306c0-11.2148,9.091-20.3062,20.3062-20.3062c11.2145,0,20.3058,9.0913,20.3058,20.3062
		C464.8737,426.282,455.7823,435.3734,444.5678,435.3734z"/>
	<path d="M1438.5448,616.4446c8.0753-7.4576,5.8605-22.9901-4.947-34.6925c-1.2948-1.4019-2.6572-2.6779-4.061-3.8382
		c1.6504-0.7703,3.2897-1.6632,4.8953-2.6949c13.4012-8.6111,19.4481-23.0884,13.506-32.3361
		c-5.9421-9.2476-21.623-9.7635-35.0244-1.1524c-0.1249,0.0803-0.2383,0.1693-0.3619,0.2508
		c-0.0311-0.1447-0.0492-0.2879-0.0819-0.4326c-3.5083-15.5384-15.0446-26.1722-25.7668-23.7512
		c-10.7223,2.421-16.5703,16.9799-13.0621,32.5179c0.0328,0.1451,0.0778,0.2819,0.1118,0.4259
		c-0.1467-0.0203-0.287-0.052-0.4344-0.0709c-15.801-2.0176-29.7391,5.1858-31.1315,16.0895
		c-1.3922,10.9038,10.2883,21.3785,26.0895,23.3962c0.1473,0.0187,0.2913,0.0234,0.4384,0.0406
		c-0.0693,0.1308-0.1472,0.252-0.2152,0.384c-7.3003,14.1582-5.2982,29.7194,4.4717,34.7569
		c9.7698,5.0375,23.608-2.3561,30.9083-16.5142c0.0681-0.1319,0.1217-0.2656,0.188-0.3981c0.0995,0.11,0.1864,0.2245,0.2871,0.3336
		C1415.1619,620.4614,1430.4694,623.9023,1438.5448,616.4446z M1385.3022,579.4872c-4.6812-7.2852-2.5702-16.9853,4.7147-21.6663
		c7.285-4.681,16.9852-2.5704,21.6664,4.7148c4.6809,7.2848,2.5701,16.9852-4.715,21.6662
		C1399.6835,588.8829,1389.9832,586.772,1385.3022,579.4872z"/>
	<path d="M1377.2725,880.1146c6.468-5.9732,4.694-18.414-3.9623-27.787c-1.037-1.1228-2.1283-2.1449-3.2527-3.0742
		c1.3219-0.617,2.6349-1.3322,3.9209-2.1585c10.7338-6.8971,15.577-18.4927,10.8176-25.8997
		c-4.7594-7.4069-17.3191-7.8201-28.0529-0.923c-0.1,0.0643-0.1909,0.1356-0.2898,0.2008c-0.025-0.1159-0.0396-0.2305-0.0657-0.3464
		c-2.8101-12.4454-12.05-20.9626-20.6381-19.0235s-13.272,13.6-10.462,26.0452c0.0262,0.1162,0.0623,0.2258,0.0896,0.3411
		c-0.1176-0.0162-0.23-0.0416-0.348-0.0568c-12.6558-1.616-23.8196,4.1536-24.9347,12.887
		c-1.1151,8.7333,8.2404,17.123,20.8964,18.7392c0.1179,0.015,0.2333,0.0187,0.3511,0.0325
		c-0.0555,0.1048-0.1179,0.2018-0.1724,0.3076c-5.8472,11.34-4.2437,23.8038,3.5815,27.8386
		c7.8251,4.0347,18.9089-1.8871,24.756-13.2271c0.0546-0.1056,0.0975-0.2127,0.1506-0.3188c0.0796,0.0881,0.1493,0.1797,0.23,0.2672
		C1358.5439,883.3317,1370.8044,886.0878,1377.2725,880.1146z M1334.6279,850.5135c-3.7495-5.8351-2.0586-13.6044,3.7762-17.3536
		s13.6042-2.0587,17.3536,3.7764c3.7493,5.8347,2.0585,13.6042-3.7765,17.3535
		C1346.1465,858.039,1338.3771,856.3483,1334.6279,850.5135z"/>
	<path d="M1630.5366,345.568c6.468-5.9732,4.694-18.414-3.9623-27.787c-1.037-1.1228-2.1283-2.1449-3.2527-3.0742
		c1.3219-0.617,2.6349-1.3322,3.9209-2.1585c10.7338-6.8971,15.577-18.4927,10.8176-25.8996
		c-4.7594-7.4069-17.3191-7.8201-28.0529-0.923c-0.1,0.0643-0.1908,0.1356-0.2898,0.2009c-0.025-0.1159-0.0396-0.2306-0.0657-0.3465
		c-2.8101-12.4455-12.0499-20.9626-20.6379-19.0235c-8.588,1.9391-13.272,13.6001-10.4622,26.0452
		c0.0264,0.1162,0.0623,0.2258,0.0896,0.3412c-0.1176-0.0163-0.2299-0.0417-0.348-0.0568
		c-12.6558-1.616-23.8196,4.1536-24.9347,12.887c-1.1151,8.7334,8.2405,17.123,20.8964,18.7392
		c0.118,0.015,0.2333,0.0188,0.3511,0.0325c-0.0555,0.1048-0.1179,0.2018-0.1724,0.3076
		c-5.8472,11.34-4.2437,23.8038,3.5815,27.8385c7.8252,4.0348,18.9089-1.8871,24.7561-13.2271
		c0.0546-0.1056,0.0974-0.2127,0.1505-0.3188c0.0797,0.0881,0.1493,0.1797,0.23,0.2672
		C1611.8081,348.7851,1624.0686,351.5412,1630.5366,345.568z M1587.8921,315.9669c-3.7494-5.8351-2.0586-13.6044,3.7762-17.3536
		c5.835-3.7493,13.6042-2.0587,17.3536,3.7763c3.7493,5.8348,2.0585,13.6042-3.7764,17.3535
		C1599.4108,323.4924,1591.6412,321.8017,1587.8921,315.9669z"/>
	<path d="M1510.0624,931.2441c4.6504-4.2946,3.3749-13.2393-2.8488-19.9783c-0.7456-0.8073-1.5302-1.5422-2.3386-2.2103
		c0.9504-0.4436,1.8944-0.9578,2.819-1.5519c7.7174-4.9589,11.1996-13.2959,7.7777-18.6213s-12.452-5.6225-20.1694-0.6636
		c-0.0719,0.0463-0.1372,0.0975-0.2084,0.1444c-0.0179-0.0833-0.0284-0.1658-0.0472-0.2491
		c-2.0204-8.9481-8.6637-15.0717-14.8384-13.6776c-6.1746,1.3942-9.5422,9.7782-7.522,18.726
		c0.0189,0.0836,0.0447,0.1624,0.0643,0.2453c-0.0845-0.0117-0.1653-0.03-0.2501-0.0408
		c-9.0994-1.1619-17.1259,2.9863-17.9276,9.2654s5.9247,12.3112,15.024,13.4731c0.0848,0.0108,0.1677,0.0135,0.2524,0.0234
		c-0.0399,0.0753-0.0847,0.1451-0.1239,0.2211c-4.204,8.1533-3.051,17.1145,2.5751,20.0154
		c5.6261,2.9009,13.5951-1.3568,17.7991-9.51c0.0393-0.0759,0.0702-0.153,0.1083-0.2292c0.0573,0.0633,0.1073,0.1292,0.1654,0.1921
		C1496.5969,933.5573,1505.412,935.5388,1510.0624,931.2441z M1479.4017,909.9615c-2.6957-4.1953-1.4801-9.7813,2.7151-12.4769
		c4.1952-2.6957,9.7813-1.4802,12.4769,2.7151c2.6957,4.1951,1.48,9.7812-2.7152,12.4769
		C1487.6835,915.3723,1482.0973,914.1567,1479.4017,909.9615z"/>
	<path d="M1437.2687,226.9187c-10.84-19.4166-42.4382-22.422-70.5759-6.7128c-3.3706,1.882-6.5261,3.9568-9.4734,6.1678
		c-0.7328-3.611-1.712-7.2581-2.9802-10.9049c-10.5844-30.4381-36.1917-49.1922-57.1957-41.8883s-29.4504,37.8997-18.8661,68.3377
		c0.0986,0.2838,0.2201,0.549,0.3217,0.8307c-0.2994-0.0073-0.5895-0.0395-0.8895-0.0439
		c-32.2228-0.4642-58.6041,17.1848-58.9246,39.4201c-0.3203,22.2354,25.5417,40.637,57.7635,41.1016
		c0.301,0.0041,0.5913-0.0193,0.8907-0.0181c-0.1095,0.2788-0.2383,0.5398-0.3455,0.8208
		c-11.4568,30.1204-3.8955,60.9471,16.8895,68.8531s46.9219-10.1023,58.3793-40.2228c0.1066-0.2808,0.1841-0.5617,0.2875-0.8427
		c0.2245,0.1982,0.4258,0.4089,0.6534,0.6052c24.3855,21.0679,55.9392,24.5055,70.4771,7.6783
		c14.5378-16.8272,6.5552-47.5477-17.8303-68.6156c-0.2272-0.1965-0.4647-0.3653-0.6937-0.5584
		c0.2633-0.1435,0.5297-0.2602,0.792-0.4067C1434.0862,274.8105,1448.1088,246.3355,1437.2687,226.9187z M1339.349,314.1172
		c-16.5468,5.7539-34.6239-2.9953-40.3776-19.5413c-5.7538-16.5463,2.9948-34.6237,19.5415-40.3776
		c16.5459-5.7536,34.6234,2.9954,40.3772,19.5417C1364.6438,290.2861,1355.8948,308.3637,1339.349,314.1172z"/>
</g>
</svg>
